<svg width="127" height="92" viewBox="0 0 127 92" fill="none" xmlns="http://www.w3.org/2000/svg">
<g filter="url(#filter0_b_122_205)">
<rect y="-0.00012207" width="127" height="92" rx="20" fill="white" fill-opacity="0.1"/>
</g>
<path d="M51.3399 33.1199C50.2865 33.1199 49.2865 33.0865 48.3399 33.0199C47.3932 32.9665 46.5465 32.8799 45.7999 32.7599V30.7799H50.4399C50.9865 30.7799 51.4532 30.7332 51.8399 30.6399C52.2265 30.5465 52.5199 30.3799 52.7199 30.1399C52.9199 29.8999 53.0199 29.5532 53.0199 29.0999V28.3599C53.0199 27.9465 52.9199 27.6199 52.7199 27.3799C52.5199 27.1265 52.2532 26.9465 51.9199 26.8399C51.5999 26.7332 51.2465 26.6732 50.8599 26.6599L47.1799 26.4999V24.6199L50.7599 24.4399C51.4132 24.4132 51.9199 24.2865 52.2799 24.0599C52.6532 23.8332 52.8399 23.4599 52.8399 22.9399V22.2599C52.8399 21.6599 52.6399 21.2132 52.2399 20.9199C51.8399 20.6132 51.1999 20.4599 50.3199 20.4599H46.1799V18.4799C46.8865 18.3865 47.6665 18.2999 48.5199 18.2199C49.3865 18.1265 50.3132 18.0932 51.2999 18.1199C52.1665 18.1199 52.8932 18.2599 53.4799 18.5399C54.0799 18.8199 54.5332 19.2265 54.8399 19.7599C55.1465 20.2932 55.2999 20.9399 55.2999 21.6999V22.8399C55.2999 23.2532 55.2399 23.6199 55.1199 23.9399C55.0132 24.2465 54.8665 24.5065 54.6799 24.7199C54.4932 24.9332 54.2799 25.1132 54.0399 25.2599C53.8132 25.3932 53.5799 25.4932 53.3399 25.5599C53.5932 25.6265 53.8465 25.7465 54.0999 25.9199C54.3665 26.0799 54.5999 26.2932 54.7999 26.5599C55.0132 26.8132 55.1865 27.1199 55.3199 27.4799C55.4532 27.8399 55.5199 28.2399 55.5199 28.6799V29.5399C55.5199 30.7132 55.1532 31.6065 54.4199 32.2199C53.6865 32.8199 52.6599 33.1199 51.3399 33.1199ZM63.061 33.0999C62.221 33.0999 61.3543 33.0732 60.461 33.0199C59.5676 32.9665 58.741 32.8999 57.981 32.8199V30.8799H63.161C63.681 30.8799 64.1076 30.7932 64.441 30.6199C64.7743 30.4465 65.021 30.2132 65.181 29.9199C65.341 29.6132 65.421 29.2865 65.421 28.9399V27.6999C65.421 27.1532 65.2743 26.7265 64.981 26.4199C64.6876 26.0999 64.2143 25.9399 63.561 25.9399H62.261C61.7676 25.9399 61.381 26.0465 61.101 26.2599C60.8343 26.4732 60.661 26.7999 60.581 27.2399H58.241L58.661 18.2399H67.361V20.4599H60.801L60.601 24.6399C60.7876 24.3999 61.0676 24.2065 61.441 24.0599C61.8143 23.9132 62.2543 23.8399 62.761 23.8399H64.421C65.1943 23.8399 65.8343 23.9932 66.341 24.2999C66.861 24.5932 67.2476 24.9999 67.501 25.5199C67.7676 26.0265 67.901 26.6065 67.901 27.2599V29.4399C67.901 30.2799 67.7076 30.9732 67.321 31.5199C66.9476 32.0532 66.401 32.4532 65.681 32.7199C64.961 32.9732 64.0876 33.0999 63.061 33.0999ZM73.9852 33.0799C73.2119 33.0799 72.5385 32.9465 71.9652 32.6799C71.3919 32.3999 70.9519 31.9865 70.6452 31.4399C70.3385 30.8799 70.1852 30.1865 70.1852 29.3599V21.9399C70.1852 21.0999 70.3385 20.3999 70.6452 19.8399C70.9652 19.2665 71.4119 18.8399 71.9852 18.5599C72.5585 18.2665 73.2319 18.1199 74.0052 18.1199H77.0252C77.8519 18.1199 78.5319 18.2732 79.0652 18.5799C79.6119 18.8865 80.0185 19.3265 80.2852 19.8999C80.5519 20.4599 80.6852 21.1399 80.6852 21.9399V29.3599C80.6852 30.5865 80.3585 31.5132 79.7052 32.1399C79.0519 32.7665 78.1519 33.0799 77.0052 33.0799H73.9852ZM74.5652 30.8399H76.3652C77.0052 30.8399 77.4719 30.6865 77.7652 30.3799C78.0719 30.0599 78.2252 29.5999 78.2252 28.9999V22.1799C78.2252 21.5265 78.0652 21.0599 77.7452 20.7799C77.4385 20.4865 77.0119 20.3399 76.4652 20.3399H74.4852C73.9119 20.3399 73.4652 20.4999 73.1452 20.8199C72.8252 21.1265 72.6652 21.5799 72.6652 22.1799V28.9999C72.6652 29.6265 72.8319 30.0932 73.1652 30.3999C73.4985 30.6932 73.9652 30.8399 74.5652 30.8399Z" fill="white"/>
<path d="M54.9018 56.9999V47.4319H55.9418V51.7609H57.6188L60.2448 47.4319H61.3368L58.4378 52.2159L61.3758 56.9999H60.2708L57.6188 52.6969H55.9418V56.9999H54.9018ZM62.7599 56.9999V50.0579H63.5659L63.7869 50.8249C64.1335 50.5822 64.5192 50.3742 64.9439 50.2009C65.3772 50.0275 65.8582 49.9409 66.3869 49.9409C66.8202 49.9409 67.1885 50.0405 67.4919 50.2399C67.8039 50.4305 68.0379 50.6732 68.1939 50.9679C68.4105 50.8119 68.6705 50.6559 68.9739 50.4999C69.2859 50.3439 69.6152 50.2139 69.9619 50.1099C70.3172 49.9972 70.6595 49.9409 70.9889 49.9409C71.4915 49.9409 71.9032 50.0492 72.2239 50.2659C72.5445 50.4739 72.7785 50.7599 72.9259 51.1239C73.0819 51.4792 73.1599 51.8779 73.1599 52.3199V56.9999H72.1329V52.3979C72.1329 52.1032 72.0722 51.8432 71.9509 51.6179C71.8382 51.3839 71.6735 51.2019 71.4569 51.0719C71.2402 50.9419 70.9759 50.8769 70.6639 50.8769C70.2739 50.8769 69.8752 50.9505 69.4679 51.0979C69.0605 51.2452 68.6835 51.4229 68.3369 51.6309C68.3802 51.7609 68.4105 51.8909 68.4279 52.0209C68.4539 52.1422 68.4669 52.2722 68.4669 52.4109V56.9999H67.4399V52.3979C67.4399 52.1032 67.3792 51.8432 67.2579 51.6179C67.1452 51.3839 66.9805 51.2019 66.7639 51.0719C66.5559 50.9419 66.2959 50.8769 65.9839 50.8769C65.6979 50.8769 65.4292 50.9072 65.1779 50.9679C64.9352 51.0199 64.7012 51.0979 64.4759 51.2019C64.2592 51.2972 64.0295 51.4142 63.7869 51.5529V56.9999H62.7599ZM46.4848 74.9999V65.4319H50.2548C50.5668 65.4319 50.8701 65.4709 51.1648 65.5489C51.4594 65.6182 51.7238 65.7525 51.9578 65.9519C52.2004 66.1512 52.3911 66.4372 52.5298 66.8099C52.6684 67.1739 52.7378 67.6549 52.7378 68.2529C52.7378 68.7729 52.6814 69.2019 52.5688 69.5399C52.4561 69.8692 52.3088 70.1335 52.1268 70.3329C51.9448 70.5235 51.7454 70.6665 51.5288 70.7619C51.3208 70.8485 51.1171 70.9092 50.9178 70.9439L52.8808 74.9999H51.8278L49.9688 71.0869C49.8301 71.0869 49.6568 71.0825 49.4488 71.0739C49.2408 71.0652 49.0198 71.0609 48.7858 71.0609C48.5518 71.0609 48.3221 71.0565 48.0968 71.0479C47.8801 71.0392 47.6894 71.0349 47.5248 71.0349V74.9999H46.4848ZM47.5248 70.2419H50.0988C50.3241 70.2419 50.5321 70.2159 50.7228 70.1639C50.9134 70.1119 51.0824 70.0165 51.2298 69.8779C51.3771 69.7305 51.4941 69.5269 51.5808 69.2669C51.6674 69.0069 51.7108 68.6689 51.7108 68.2529C51.7108 67.8542 51.6674 67.5335 51.5808 67.2909C51.4941 67.0395 51.3728 66.8489 51.2168 66.7189C51.0694 66.5802 50.9004 66.4892 50.7098 66.4459C50.5191 66.3939 50.3154 66.3679 50.0988 66.3679H47.5248V70.2419ZM55.606 75.0779C55.0947 75.0779 54.6743 74.9262 54.345 74.6229C54.0157 74.3195 53.851 73.8905 53.851 73.3359V72.8419C53.851 72.2959 54.0287 71.8539 54.384 71.5159C54.748 71.1779 55.294 71.0089 56.022 71.0089H58.375V70.1509C58.375 69.8649 58.323 69.6222 58.219 69.4229C58.1237 69.2149 57.946 69.0545 57.686 68.9419C57.4347 68.8292 57.0663 68.7729 56.581 68.7729H54.423V68.1619C54.7263 68.1099 55.0773 68.0622 55.476 68.0189C55.8833 67.9755 56.36 67.9539 56.906 67.9539C57.4693 67.9452 57.9373 68.0145 58.31 68.1619C58.6827 68.3092 58.9557 68.5432 59.129 68.8639C59.311 69.1759 59.402 69.5875 59.402 70.0989V74.9999H58.609L58.414 74.2069C58.3793 74.2415 58.271 74.3022 58.089 74.3889C57.9157 74.4755 57.6903 74.5752 57.413 74.6879C57.1443 74.7919 56.8497 74.8829 56.529 74.9609C56.217 75.0389 55.9093 75.0779 55.606 75.0779ZM56.035 74.3109C56.191 74.3195 56.3687 74.3022 56.568 74.2589C56.7673 74.2155 56.971 74.1679 57.179 74.1159C57.387 74.0552 57.5777 73.9945 57.751 73.9339C57.933 73.8732 58.0803 73.8212 58.193 73.7779C58.3057 73.7345 58.3663 73.7129 58.375 73.7129V71.5289L56.256 71.6199C55.762 71.6372 55.4067 71.7585 55.19 71.9839C54.982 72.2092 54.878 72.4995 54.878 72.8549V73.1669C54.878 73.4442 54.9343 73.6695 55.047 73.8429C55.1683 74.0075 55.3157 74.1245 55.489 74.1939C55.671 74.2632 55.853 74.3022 56.035 74.3109ZM61.338 74.9999V68.0579H62.144L62.365 68.8249C62.6943 68.5909 63.08 68.3872 63.522 68.2139C63.964 68.0319 64.4233 67.9409 64.9 67.9409C65.4113 67.9409 65.823 68.0492 66.135 68.2659C66.447 68.4825 66.6766 68.7685 66.824 69.1239C66.9713 69.4792 67.045 69.8649 67.045 70.2809V74.9999H66.018V70.3979C66.018 70.1032 65.9573 69.8432 65.836 69.6179C65.7233 69.3839 65.5586 69.2019 65.342 69.0719C65.134 68.9419 64.874 68.8769 64.562 68.8769C64.276 68.8769 64.0073 68.9072 63.756 68.9679C63.5133 69.0199 63.2793 69.0979 63.054 69.2019C62.8373 69.2972 62.6076 69.4142 62.365 69.5529V74.9999H61.338ZM70.6836 78.1849C70.2329 78.1849 69.8342 78.1199 69.4876 77.9899C69.1496 77.8685 68.8809 77.6779 68.6816 77.4179C68.4909 77.1665 68.3956 76.8502 68.3956 76.4689V76.1569C68.3956 75.7582 68.5039 75.4245 68.7206 75.1559C68.9459 74.8872 69.2276 74.6879 69.5656 74.5579C69.9036 74.4192 70.2502 74.3499 70.6056 74.3499L70.8656 74.7659C70.6056 74.7659 70.3629 74.8092 70.1376 74.8959C69.9122 74.9739 69.7259 75.1039 69.5786 75.2859C69.4399 75.4679 69.3706 75.7019 69.3706 75.9879V76.2739C69.3706 76.6899 69.5092 76.9845 69.7866 77.1579C70.0639 77.3399 70.4409 77.4309 70.9176 77.4309H72.5296C73.0496 77.4309 73.4569 77.3312 73.7516 77.1319C74.0549 76.9325 74.2066 76.6205 74.2066 76.1959V75.9359C74.2066 75.6932 74.1589 75.4852 74.0636 75.3119C73.9682 75.1385 73.8079 75.0042 73.5826 74.9089C73.3659 74.8135 73.0582 74.7659 72.6596 74.7659H70.5666C70.0292 74.7659 69.6089 74.6532 69.3056 74.4279C69.0109 74.1939 68.8636 73.8949 68.8636 73.5309C68.8636 73.1842 68.9632 72.9112 69.1626 72.7119C69.3706 72.5125 69.6609 72.3739 70.0336 72.2959C69.7129 72.1659 69.4616 71.9925 69.2796 71.7759C69.0976 71.5505 68.9719 71.3122 68.9026 71.0609C68.8332 70.8009 68.7986 70.5409 68.7986 70.2809C68.7986 69.7435 68.9069 69.3102 69.1236 68.9809C69.3402 68.6515 69.6479 68.4132 70.0466 68.2659C70.4539 68.1185 70.9306 68.0449 71.4766 68.0449H75.1816V68.6299L73.6216 68.7599C73.7342 68.8379 73.8599 68.9419 73.9986 69.0719C74.1372 69.1932 74.2542 69.3709 74.3496 69.6049C74.4536 69.8302 74.5056 70.1422 74.5056 70.5409C74.5056 70.8962 74.4276 71.2342 74.2716 71.5549C74.1242 71.8755 73.8729 72.1399 73.5176 72.3479C73.1622 72.5472 72.6726 72.6469 72.0486 72.6469H70.9436C70.5796 72.6469 70.2892 72.7032 70.0726 72.8159C69.8646 72.9199 69.7606 73.1105 69.7606 73.3879C69.7606 73.5959 69.8386 73.7432 69.9946 73.8299C70.1506 73.9165 70.3152 73.9599 70.4886 73.9599H72.7896C73.3269 73.9599 73.7689 74.0292 74.1156 74.1679C74.4709 74.3065 74.7352 74.5189 74.9086 74.8049C75.0906 75.0822 75.1816 75.4375 75.1816 75.8709V76.1569C75.1816 76.7895 74.9649 77.2835 74.5316 77.6389C74.1069 78.0029 73.4699 78.1849 72.6206 78.1849H70.6836ZM71.1646 71.8539H71.9446C72.3866 71.8539 72.7202 71.7889 72.9456 71.6589C73.1796 71.5202 73.3399 71.3425 73.4266 71.1259C73.5132 70.9092 73.5566 70.6752 73.5566 70.4239C73.5566 70.0339 73.4916 69.7262 73.3616 69.5009C73.2402 69.2669 73.0669 69.1022 72.8416 69.0069C72.6162 68.9029 72.3562 68.8509 72.0616 68.8509H71.3206C70.8266 68.8509 70.4366 68.9635 70.1506 69.1889C69.8732 69.4055 69.7346 69.7869 69.7346 70.3329C69.7346 70.8702 69.8602 71.2602 70.1116 71.5029C70.3716 71.7369 70.7226 71.8539 71.1646 71.8539ZM79.1228 75.0779C78.3948 75.0779 77.8185 74.9695 77.3938 74.7529C76.9778 74.5362 76.6788 74.1679 76.4968 73.6479C76.3148 73.1279 76.2238 72.4172 76.2238 71.5159C76.2238 70.5972 76.3148 69.8822 76.4968 69.3709C76.6875 68.8509 76.9951 68.4869 77.4198 68.2789C77.8445 68.0709 78.4165 67.9669 79.1358 67.9669C79.7511 67.9669 80.2495 68.0362 80.6308 68.1749C81.0208 68.3135 81.3068 68.5519 81.4888 68.8899C81.6795 69.2192 81.7748 69.6785 81.7748 70.2679C81.7748 70.6752 81.6925 71.0045 81.5278 71.2559C81.3718 71.4985 81.1421 71.6762 80.8388 71.7889C80.5441 71.8929 80.1931 71.9449 79.7858 71.9449H77.2508C77.2595 72.5082 77.3201 72.9632 77.4328 73.3099C77.5455 73.6479 77.7491 73.8949 78.0438 74.0509C78.3471 74.1982 78.7891 74.2719 79.3698 74.2719H81.6058V74.8959C81.2071 74.9479 80.8171 74.9912 80.4358 75.0259C80.0545 75.0605 79.6168 75.0779 79.1228 75.0779ZM77.2378 71.2689H79.7078C80.0978 71.2689 80.3838 71.1995 80.5658 71.0609C80.7565 70.9135 80.8518 70.6535 80.8518 70.2809C80.8518 69.8822 80.7911 69.5745 80.6698 69.3579C80.5571 69.1325 80.3751 68.9765 80.1238 68.8899C79.8811 68.7945 79.5518 68.7469 79.1358 68.7469C78.6505 68.7469 78.2691 68.8205 77.9918 68.9679C77.7145 69.1065 77.5195 69.3579 77.4068 69.7219C77.2941 70.0859 77.2378 70.6015 77.2378 71.2689Z" fill="white"/>
<defs>
<filter id="filter0_b_122_205" x="-16" y="-16.0001" width="159" height="124" filterUnits="userSpaceOnUse" color-interpolation-filters="sRGB">
<feFlood flood-opacity="0" result="BackgroundImageFix"/>
<feGaussianBlur in="BackgroundImageFix" stdDeviation="8"/>
<feComposite in2="SourceAlpha" operator="in" result="effect1_backgroundBlur_122_205"/>
<feBlend mode="normal" in="SourceGraphic" in2="effect1_backgroundBlur_122_205" result="shape"/>
</filter>
</defs>
</svg>
