<svg width="127" height="92" viewBox="0 0 127 92" fill="none" xmlns="http://www.w3.org/2000/svg">
<g filter="url(#filter0_b_122_209)">
<rect width="127" height="92" rx="20" fill="white" fill-opacity="0.1"/>
</g>
<path d="M52.6 29.98V26.64H45.96L45.48 25.42L50.54 15.24H53.08L48.4 24.54H52.6V21.28L53.12 19.7H55.08V24.54H56.78V26.24L55.08 26.64V29.98H52.6ZM62.327 30.08C61.807 30.08 61.3137 30.0333 60.847 29.94C60.3937 29.8333 59.9937 29.6667 59.647 29.44C59.3004 29.2 59.027 28.88 58.827 28.48C58.627 28.08 58.527 27.5733 58.527 26.96V24.9C58.527 24.4733 58.607 24.1 58.767 23.78C58.927 23.4467 59.1337 23.1667 59.387 22.94C59.6537 22.7133 59.947 22.5667 60.267 22.5C59.8537 22.3 59.5404 22.0667 59.327 21.8C59.127 21.52 58.9937 21.22 58.927 20.9C58.8604 20.58 58.827 20.2467 58.827 19.9V18.2C58.827 17.4533 58.9804 16.8533 59.287 16.4C59.5937 15.9467 60.0004 15.62 60.507 15.42C61.027 15.22 61.5937 15.12 62.207 15.12H64.987C65.627 15.12 66.187 15.22 66.667 15.42C67.1604 15.62 67.547 15.9467 67.827 16.4C68.1204 16.8533 68.267 17.4533 68.267 18.2V19.9C68.267 20.0867 68.2404 20.3 68.187 20.54C68.147 20.78 68.0737 21.0267 67.967 21.28C67.8604 21.52 67.7137 21.7267 67.527 21.9C67.3537 22.0733 67.1404 22.1933 66.887 22.26C67.327 22.3533 67.667 22.5467 67.907 22.84C68.147 23.12 68.3137 23.44 68.407 23.8C68.5004 24.16 68.547 24.5 68.547 24.82V26.96C68.547 27.7733 68.3937 28.4067 68.087 28.86C67.7804 29.3 67.3604 29.6133 66.827 29.8C66.2937 29.9867 65.6937 30.08 65.027 30.08H62.327ZM62.727 27.96H64.467C65.067 27.96 65.4804 27.84 65.707 27.6C65.947 27.3467 66.067 26.9867 66.067 26.52V25.02C66.067 24.5133 65.9404 24.14 65.687 23.9C65.4337 23.6467 65.0137 23.52 64.427 23.52H62.727C62.5404 23.52 62.347 23.5467 62.147 23.6C61.947 23.6533 61.7604 23.7467 61.587 23.88C61.4137 24 61.2737 24.1533 61.167 24.34C61.0604 24.5267 61.007 24.7533 61.007 25.02V26.52C61.007 27.0533 61.1604 27.4267 61.467 27.64C61.787 27.8533 62.207 27.96 62.727 27.96ZM62.727 21.4H64.407C64.7804 21.4 65.067 21.3333 65.267 21.2C65.4804 21.0533 65.627 20.8667 65.707 20.64C65.8004 20.4 65.847 20.1467 65.847 19.88V18.78C65.847 18.1533 65.7204 17.74 65.467 17.54C65.227 17.3267 64.8937 17.22 64.467 17.22H62.727C62.207 17.22 61.827 17.3333 61.587 17.56C61.3604 17.7867 61.247 18.1933 61.247 18.78V19.88C61.247 20.4 61.3604 20.7867 61.587 21.04C61.827 21.28 62.207 21.4 62.727 21.4ZM74.9033 30.08C74.1299 30.08 73.4566 29.9467 72.8833 29.68C72.3099 29.4 71.8699 28.9867 71.5633 28.44C71.2566 27.88 71.1033 27.1867 71.1033 26.36V18.94C71.1033 18.1 71.2566 17.4 71.5633 16.84C71.8833 16.2667 72.3299 15.84 72.9033 15.56C73.4766 15.2667 74.1499 15.12 74.9233 15.12H77.9433C78.7699 15.12 79.4499 15.2733 79.9833 15.58C80.5299 15.8867 80.9366 16.3267 81.2033 16.9C81.4699 17.46 81.6033 18.14 81.6033 18.94V26.36C81.6033 27.5867 81.2766 28.5133 80.6233 29.14C79.9699 29.7667 79.0699 30.08 77.9233 30.08H74.9033ZM75.4833 27.84H77.2833C77.9233 27.84 78.3899 27.6867 78.6833 27.38C78.9899 27.06 79.1433 26.6 79.1433 26V19.18C79.1433 18.5267 78.9833 18.06 78.6633 17.78C78.3566 17.4867 77.9299 17.34 77.3833 17.34H75.4033C74.8299 17.34 74.3833 17.5 74.0633 17.82C73.7433 18.1267 73.5833 18.58 73.5833 19.18V26C73.5833 26.6267 73.7499 27.0933 74.0833 27.4C74.4166 27.6933 74.8833 27.84 75.4833 27.84Z" fill="white"/>
<path d="M54.9019 57V47.432H55.9419V51.761H57.6189L60.2449 47.432H61.3369L58.4379 52.216L61.3759 57H60.2709L57.6189 52.697H55.9419V57H54.9019ZM62.76 57V50.058H63.566L63.787 50.825C64.1336 50.5823 64.5193 50.3743 64.944 50.201C65.3773 50.0277 65.8583 49.941 66.387 49.941C66.8203 49.941 67.1886 50.0407 67.492 50.24C67.804 50.4307 68.038 50.6733 68.194 50.968C68.4106 50.812 68.6706 50.656 68.974 50.5C69.286 50.344 69.6153 50.214 69.962 50.11C70.3173 49.9973 70.6596 49.941 70.989 49.941C71.4916 49.941 71.9033 50.0493 72.224 50.266C72.5446 50.474 72.7786 50.76 72.926 51.124C73.082 51.4793 73.16 51.878 73.16 52.32V57H72.133V52.398C72.133 52.1033 72.0723 51.8433 71.951 51.618C71.8383 51.384 71.6736 51.202 71.457 51.072C71.2403 50.942 70.976 50.877 70.664 50.877C70.274 50.877 69.8753 50.9507 69.468 51.098C69.0606 51.2453 68.6836 51.423 68.337 51.631C68.3803 51.761 68.4106 51.891 68.428 52.021C68.454 52.1423 68.467 52.2723 68.467 52.411V57H67.44V52.398C67.44 52.1033 67.3793 51.8433 67.258 51.618C67.1453 51.384 66.9806 51.202 66.764 51.072C66.556 50.942 66.296 50.877 65.984 50.877C65.698 50.877 65.4293 50.9073 65.178 50.968C64.9353 51.02 64.7013 51.098 64.476 51.202C64.2593 51.2973 64.0296 51.4143 63.787 51.553V57H62.76ZM48.7254 75V66.368H45.7744V65.432H52.7164V66.368H49.7654V75H48.7254ZM53.6638 75V68.058H54.4438L54.6908 69.267C55.0028 68.8943 55.3494 68.5867 55.7308 68.344C56.1208 68.1013 56.5671 67.98 57.0698 67.98C57.1911 67.98 57.3038 67.9843 57.4078 67.993C57.5204 68.0017 57.6244 68.019 57.7198 68.045V69.098C57.6071 69.0807 57.4858 69.0677 57.3558 69.059C57.2258 69.0417 57.0958 69.033 56.9658 69.033C56.6451 69.033 56.3591 69.072 56.1078 69.15C55.8564 69.228 55.6181 69.345 55.3928 69.501C55.1674 69.657 54.9334 69.8477 54.6908 70.073V75H53.6638ZM60.1193 75.078C59.608 75.078 59.1876 74.9263 58.8583 74.623C58.529 74.3197 58.3643 73.8907 58.3643 73.336V72.842C58.3643 72.296 58.542 71.854 58.8973 71.516C59.2613 71.178 59.8073 71.009 60.5353 71.009H62.8883V70.151C62.8883 69.865 62.8363 69.6223 62.7323 69.423C62.637 69.215 62.4593 69.0547 62.1993 68.942C61.948 68.8293 61.5796 68.773 61.0943 68.773H58.9363V68.162C59.2396 68.11 59.5906 68.0623 59.9893 68.019C60.3966 67.9757 60.8733 67.954 61.4193 67.954C61.9826 67.9453 62.4506 68.0147 62.8233 68.162C63.196 68.3093 63.469 68.5433 63.6423 68.864C63.8243 69.176 63.9153 69.5877 63.9153 70.099V75H63.1223L62.9273 74.207C62.8926 74.2417 62.7843 74.3023 62.6023 74.389C62.429 74.4757 62.2036 74.5753 61.9263 74.688C61.6576 74.792 61.363 74.883 61.0423 74.961C60.7303 75.039 60.4226 75.078 60.1193 75.078ZM60.5483 74.311C60.7043 74.3197 60.882 74.3023 61.0813 74.259C61.2806 74.2157 61.4843 74.168 61.6923 74.116C61.9003 74.0553 62.091 73.9947 62.2643 73.934C62.4463 73.8733 62.5936 73.8213 62.7063 73.778C62.819 73.7347 62.8796 73.713 62.8883 73.713V71.529L60.7693 71.62C60.2753 71.6373 59.92 71.7587 59.7033 71.984C59.4953 72.2093 59.3913 72.4997 59.3913 72.855V73.167C59.3913 73.4443 59.4476 73.6697 59.5603 73.843C59.6816 74.0077 59.829 74.1247 60.0023 74.194C60.1843 74.2633 60.3663 74.3023 60.5483 74.311ZM67.7233 75L65.1103 68.058H66.1633L68.3213 74.038L70.5443 68.058H71.5843L68.8933 75H67.7233ZM75.2191 75.078C74.4911 75.078 73.9148 74.9697 73.4901 74.753C73.0741 74.5363 72.7751 74.168 72.5931 73.648C72.4111 73.128 72.3201 72.4173 72.3201 71.516C72.3201 70.5973 72.4111 69.8823 72.5931 69.371C72.7838 68.851 73.0914 68.487 73.5161 68.279C73.9408 68.071 74.5128 67.967 75.2321 67.967C75.8474 67.967 76.3458 68.0363 76.7271 68.175C77.1171 68.3137 77.4031 68.552 77.5851 68.89C77.7758 69.2193 77.8711 69.6787 77.8711 70.268C77.8711 70.6753 77.7888 71.0047 77.6241 71.256C77.4681 71.4987 77.2384 71.6763 76.9351 71.789C76.6404 71.893 76.2894 71.945 75.8821 71.945H73.3471C73.3558 72.5083 73.4164 72.9633 73.5291 73.31C73.6418 73.648 73.8454 73.895 74.1401 74.051C74.4434 74.1983 74.8854 74.272 75.4661 74.272H77.7021V74.896C77.3034 74.948 76.9134 74.9913 76.5321 75.026C76.1508 75.0607 75.7131 75.078 75.2191 75.078ZM73.3341 71.269H75.8041C76.1941 71.269 76.4801 71.1997 76.6621 71.061C76.8528 70.9137 76.9481 70.6537 76.9481 70.281C76.9481 69.8823 76.8874 69.5747 76.7661 69.358C76.6534 69.1327 76.4714 68.9767 76.2201 68.89C75.9774 68.7947 75.6481 68.747 75.2321 68.747C74.7468 68.747 74.3654 68.8207 74.0881 68.968C73.8108 69.1067 73.6158 69.358 73.5031 69.722C73.3904 70.086 73.3341 70.6017 73.3341 71.269ZM81.4203 75.013C81.0216 75.013 80.688 74.9437 80.4193 74.805C80.1506 74.6577 79.947 74.4237 79.8083 74.103C79.6696 73.7737 79.6003 73.3317 79.6003 72.777V65.081H80.6273V72.647C80.6273 73.063 80.6663 73.3793 80.7443 73.596C80.8223 73.804 80.935 73.9513 81.0823 74.038C81.2296 74.116 81.403 74.168 81.6023 74.194L82.3043 74.272V75.013H81.4203Z" fill="white"/>
<defs>
<filter id="filter0_b_122_209" x="-16" y="-16" width="159" height="124" filterUnits="userSpaceOnUse" color-interpolation-filters="sRGB">
<feFlood flood-opacity="0" result="BackgroundImageFix"/>
<feGaussianBlur in="BackgroundImageFix" stdDeviation="8"/>
<feComposite in2="SourceAlpha" operator="in" result="effect1_backgroundBlur_122_209"/>
<feBlend mode="normal" in="SourceGraphic" in2="effect1_backgroundBlur_122_209" result="shape"/>
</filter>
</defs>
</svg>
