<svg width="127" height="92" viewBox="0 0 127 92" fill="none" xmlns="http://www.w3.org/2000/svg">
<g filter="url(#filter0_b_122_201)">
<rect y="-0.00012207" width="127" height="92" rx="20" fill="white" fill-opacity="0.1"/>
</g>
<path d="M44.12 33.0799C43.6 33.0799 43.1067 33.0332 42.64 32.9399C42.1867 32.8332 41.7867 32.6665 41.44 32.4399C41.0933 32.1999 40.82 31.8799 40.62 31.4799C40.42 31.0799 40.32 30.5732 40.32 29.9599V27.8999C40.32 27.4732 40.4 27.0999 40.56 26.7799C40.72 26.4465 40.9267 26.1665 41.18 25.9399C41.4467 25.7132 41.74 25.5665 42.06 25.4999C41.6467 25.2999 41.3333 25.0665 41.12 24.7999C40.92 24.5199 40.7867 24.2199 40.72 23.8999C40.6533 23.5799 40.62 23.2465 40.62 22.8999V21.1999C40.62 20.4532 40.7733 19.8532 41.08 19.3999C41.3867 18.9465 41.7933 18.6199 42.3 18.4199C42.82 18.2199 43.3867 18.1199 44 18.1199H46.78C47.42 18.1199 47.98 18.2199 48.46 18.4199C48.9533 18.6199 49.34 18.9465 49.62 19.3999C49.9133 19.8532 50.06 20.4532 50.06 21.1999V22.8999C50.06 23.0865 50.0333 23.2999 49.98 23.5399C49.94 23.7799 49.8667 24.0265 49.76 24.2799C49.6533 24.5199 49.5067 24.7265 49.32 24.8999C49.1467 25.0732 48.9333 25.1932 48.68 25.2599C49.12 25.3532 49.46 25.5465 49.7 25.8399C49.94 26.1199 50.1067 26.4399 50.2 26.7999C50.2933 27.1599 50.34 27.4999 50.34 27.8199V29.9599C50.34 30.7732 50.1867 31.4065 49.88 31.8599C49.5733 32.2999 49.1533 32.6132 48.62 32.7999C48.0867 32.9865 47.4867 33.0799 46.82 33.0799H44.12ZM44.52 30.9599H46.26C46.86 30.9599 47.2733 30.8399 47.5 30.5999C47.74 30.3465 47.86 29.9865 47.86 29.5199V28.0199C47.86 27.5132 47.7333 27.1399 47.48 26.8999C47.2267 26.6465 46.8067 26.5199 46.22 26.5199H44.52C44.3333 26.5199 44.14 26.5465 43.94 26.5999C43.74 26.6532 43.5533 26.7465 43.38 26.8799C43.2067 26.9999 43.0667 27.1532 42.96 27.3399C42.8533 27.5265 42.8 27.7532 42.8 28.0199V29.5199C42.8 30.0532 42.9533 30.4265 43.26 30.6399C43.58 30.8532 44 30.9599 44.52 30.9599ZM44.52 24.3999H46.2C46.5733 24.3999 46.86 24.3332 47.06 24.1999C47.2733 24.0532 47.42 23.8665 47.5 23.6399C47.5933 23.3999 47.64 23.1465 47.64 22.8799V21.7799C47.64 21.1532 47.5133 20.7399 47.26 20.5399C47.02 20.3265 46.6867 20.2199 46.26 20.2199H44.52C44 20.2199 43.62 20.3332 43.38 20.5599C43.1533 20.7865 43.04 21.1932 43.04 21.7799V22.8799C43.04 23.3999 43.1533 23.7865 43.38 24.0399C43.62 24.2799 44 24.3999 44.52 24.3999ZM56.6963 33.0799C55.9229 33.0799 55.2496 32.9465 54.6763 32.6799C54.1029 32.3999 53.6629 31.9865 53.3563 31.4399C53.0496 30.8799 52.8963 30.1865 52.8963 29.3599V21.9399C52.8963 21.0999 53.0496 20.3999 53.3563 19.8399C53.6763 19.2665 54.1229 18.8399 54.6963 18.5599C55.2696 18.2665 55.9429 18.1199 56.7163 18.1199H59.7363C60.5629 18.1199 61.2429 18.2732 61.7763 18.5799C62.3229 18.8865 62.7296 19.3265 62.9963 19.8999C63.2629 20.4599 63.3963 21.1399 63.3963 21.9399V29.3599C63.3963 30.5865 63.0696 31.5132 62.4163 32.1399C61.7629 32.7665 60.8629 33.0799 59.7163 33.0799H56.6963ZM57.2763 30.8399H59.0763C59.7163 30.8399 60.1829 30.6865 60.4763 30.3799C60.7829 30.0599 60.9363 29.5999 60.9363 28.9999V22.1799C60.9363 21.5265 60.7763 21.0599 60.4563 20.7799C60.1496 20.4865 59.7229 20.3399 59.1763 20.3399H57.1963C56.6229 20.3399 56.1763 20.4999 55.8563 20.8199C55.5363 21.1265 55.3763 21.5799 55.3763 22.1799V28.9999C55.3763 29.6265 55.5429 30.0932 55.8763 30.3999C56.2096 30.6932 56.6763 30.8399 57.2763 30.8399ZM69.7041 33.0799C68.9307 33.0799 68.2574 32.9465 67.6841 32.6799C67.1107 32.3999 66.6707 31.9865 66.3641 31.4399C66.0574 30.8799 65.9041 30.1865 65.9041 29.3599V21.9399C65.9041 21.0999 66.0574 20.3999 66.3641 19.8399C66.6841 19.2665 67.1307 18.8399 67.7041 18.5599C68.2774 18.2665 68.9507 18.1199 69.7241 18.1199H72.7441C73.5707 18.1199 74.2507 18.2732 74.7841 18.5799C75.3307 18.8865 75.7374 19.3265 76.0041 19.8999C76.2707 20.4599 76.4041 21.1399 76.4041 21.9399V29.3599C76.4041 30.5865 76.0774 31.5132 75.4241 32.1399C74.7707 32.7665 73.8707 33.0799 72.7241 33.0799H69.7041ZM70.2841 30.8399H72.0841C72.7241 30.8399 73.1907 30.6865 73.4841 30.3799C73.7907 30.0599 73.9441 29.5999 73.9441 28.9999V22.1799C73.9441 21.5265 73.7841 21.0599 73.4641 20.7799C73.1574 20.4865 72.7307 20.3399 72.1841 20.3399H70.2041C69.6307 20.3399 69.1841 20.4999 68.8641 20.8199C68.5441 21.1265 68.3841 21.5799 68.3841 22.1799V28.9999C68.3841 29.6265 68.5507 30.0932 68.8841 30.3999C69.2174 30.6932 69.6841 30.8399 70.2841 30.8399ZM81.7119 32.9999L77.9719 22.2799H80.5119L83.1919 30.6999L85.9319 22.2799H88.4519L84.5519 32.9999H81.7119Z" fill="white"/>
<path d="M47.8431 56.9999V48.3679H44.8921V47.4319H51.8341V48.3679H48.8831V56.9999H47.8431ZM54.8485 57.0779C54.1811 57.0779 53.6655 56.9045 53.3015 56.5579C52.9461 56.2112 52.7685 55.6739 52.7685 54.9459V50.0579H53.7955V54.6859C53.7955 55.2665 53.9255 55.6609 54.1855 55.8689C54.4541 56.0682 54.8268 56.1679 55.3035 56.1679C55.7108 56.1679 56.0835 56.1115 56.4215 55.9989C56.7595 55.8775 57.1061 55.7129 57.4615 55.5049V50.0579H58.4885V56.9999H57.6825L57.4615 56.2329C57.1061 56.4582 56.7031 56.6575 56.2525 56.8309C55.8105 56.9955 55.3425 57.0779 54.8485 57.0779ZM60.424 56.9999V50.0579H61.204L61.451 51.2669C61.763 50.8942 62.1097 50.5865 62.491 50.3439C62.881 50.1012 63.3274 49.9799 63.83 49.9799C63.9514 49.9799 64.064 49.9842 64.168 49.9929C64.2807 50.0015 64.3847 50.0189 64.48 50.0449V51.0979C64.3674 51.0805 64.246 51.0675 64.116 51.0589C63.986 51.0415 63.856 51.0329 63.726 51.0329C63.4054 51.0329 63.1194 51.0719 62.868 51.1499C62.6167 51.2279 62.3784 51.3449 62.153 51.5009C61.9277 51.6569 61.6937 51.8475 61.451 52.0729V56.9999H60.424ZM69.1225 57.0779C68.7931 57.0779 68.4855 57.0389 68.1995 56.9609C67.9221 56.8742 67.6665 56.7745 67.4325 56.6619C67.1985 56.5405 66.9905 56.4192 66.8085 56.2979L66.6135 56.9999H65.7815V47.0809H66.8085V50.6949C67.1378 50.5042 67.5105 50.3352 67.9265 50.1879C68.3425 50.0405 68.7281 49.9669 69.0835 49.9669C69.6381 49.9669 70.0975 50.0839 70.4615 50.3179C70.8255 50.5519 71.0985 50.9332 71.2805 51.4619C71.4711 51.9905 71.5665 52.6969 71.5665 53.5809C71.5665 54.3002 71.4841 54.9242 71.3195 55.4529C71.1548 55.9729 70.8905 56.3759 70.5265 56.6619C70.1711 56.9392 69.7031 57.0779 69.1225 57.0779ZM68.7975 56.2199C69.1788 56.2199 69.4951 56.1245 69.7465 55.9339C70.0065 55.7345 70.2015 55.4355 70.3315 55.0369C70.4701 54.6382 70.5395 54.1399 70.5395 53.5419C70.5395 52.7792 70.4615 52.2072 70.3055 51.8259C70.1581 51.4359 69.9545 51.1715 69.6945 51.0329C69.4345 50.8942 69.1355 50.8249 68.7975 50.8249C68.4075 50.8249 68.0565 50.8812 67.7445 50.9939C67.4411 51.0979 67.1291 51.2365 66.8085 51.4099V55.6609C67.0771 55.7909 67.3718 55.9165 67.6925 56.0379C68.0218 56.1592 68.3901 56.2199 68.7975 56.2199ZM76.0531 57.0779C75.5504 57.0779 75.1084 57.0259 74.7271 56.9219C74.3544 56.8179 74.0424 56.6359 73.7911 56.3759C73.5397 56.1159 73.3534 55.7562 73.2321 55.2969C73.1107 54.8289 73.0501 54.2352 73.0501 53.5159C73.0501 52.7879 73.1107 52.1942 73.2321 51.7349C73.3534 51.2669 73.5397 50.9072 73.7911 50.6559C74.0424 50.3959 74.3544 50.2182 74.7271 50.1229C75.1084 50.0189 75.5504 49.9669 76.0531 49.9669C76.5557 49.9669 76.9934 50.0189 77.3661 50.1229C77.7474 50.2269 78.0637 50.4089 78.3151 50.6689C78.5664 50.9202 78.7527 51.2799 78.8741 51.7479C79.0041 52.2072 79.0691 52.7965 79.0691 53.5159C79.0691 54.2439 79.0041 54.8419 78.8741 55.3099C78.7527 55.7692 78.5664 56.1289 78.3151 56.3889C78.0724 56.6402 77.7604 56.8179 77.3791 56.9219C76.9977 57.0259 76.5557 57.0779 76.0531 57.0779ZM76.0531 56.2329C76.3737 56.2329 76.6554 56.2025 76.8981 56.1419C77.1494 56.0812 77.3574 55.9599 77.5221 55.7779C77.6867 55.5959 77.8124 55.3229 77.8991 54.9589C77.9857 54.5949 78.0291 54.1139 78.0291 53.5159C78.0291 52.9092 77.9857 52.4282 77.8991 52.0729C77.8124 51.7175 77.6867 51.4489 77.5221 51.2669C77.3574 51.0849 77.1494 50.9635 76.8981 50.9029C76.6554 50.8422 76.3737 50.8119 76.0531 50.8119C75.7237 50.8119 75.4377 50.8422 75.1951 50.9029C74.9524 50.9635 74.7487 51.0849 74.5841 51.2669C74.4194 51.4489 74.2937 51.7175 74.2071 52.0729C74.1204 52.4282 74.0771 52.9092 74.0771 53.5159C74.0771 54.1139 74.1204 54.5949 74.2071 54.9589C74.2937 55.3229 74.4194 55.5959 74.5841 55.7779C74.7487 55.9599 74.9524 56.0812 75.1951 56.1419C75.4377 56.2025 75.7237 56.2329 76.0531 56.2329ZM45.2444 75.0779C44.6724 75.0779 44.174 75.0129 43.7494 74.8829C43.3247 74.7529 42.9737 74.5189 42.6964 74.1809C42.419 73.8342 42.211 73.3402 42.0724 72.6989C41.9424 72.0575 41.8774 71.2212 41.8774 70.1899C41.8774 69.2192 41.9467 68.4219 42.0854 67.7979C42.224 67.1652 42.432 66.6712 42.7094 66.3159C42.9954 65.9605 43.355 65.7135 43.7884 65.5749C44.2217 65.4275 44.733 65.3539 45.3224 65.3539C45.591 65.3539 45.89 65.3712 46.2194 65.4059C46.5487 65.4405 46.8737 65.4839 47.1944 65.5359C47.515 65.5792 47.8054 65.6355 48.0654 65.7049V66.4719C47.918 66.4459 47.71 66.4199 47.4414 66.3939C47.1727 66.3679 46.865 66.3462 46.5184 66.3289C46.1804 66.3029 45.8337 66.2899 45.4784 66.2899C45.019 66.2899 44.6247 66.3419 44.2954 66.4459C43.966 66.5499 43.6974 66.7449 43.4894 67.0309C43.29 67.3082 43.1427 67.7025 43.0474 68.2139C42.952 68.7252 42.9044 69.3882 42.9044 70.2029C42.9044 71.0262 42.9477 71.7022 43.0344 72.2309C43.1297 72.7509 43.277 73.1495 43.4764 73.4269C43.6757 73.7042 43.9357 73.8949 44.2564 73.9989C44.577 74.1029 44.9757 74.1549 45.4524 74.1549C46.1024 74.1549 46.6354 74.1375 47.0514 74.1029C47.4674 74.0682 47.8054 74.0292 48.0654 73.9859V74.7659C47.8054 74.8265 47.515 74.8829 47.1944 74.9349C46.8824 74.9782 46.5574 75.0129 46.2194 75.0389C45.89 75.0649 45.565 75.0779 45.2444 75.0779ZM49.6521 74.9999V65.0809H50.6791V68.8249C50.9997 68.5909 51.3811 68.3872 51.8231 68.2139C52.2737 68.0319 52.7417 67.9409 53.2271 67.9409C53.7124 67.9409 54.1111 68.0449 54.4231 68.2529C54.7437 68.4609 54.9777 68.7425 55.1251 69.0979C55.2811 69.4532 55.3591 69.8475 55.3591 70.2809V74.9999H54.3321V70.3849C54.3321 70.0902 54.2714 69.8302 54.1501 69.6049C54.0374 69.3795 53.8727 69.2019 53.6561 69.0719C53.4394 68.9419 53.1794 68.8769 52.8761 68.8769C52.5901 68.8769 52.3257 68.9072 52.0831 68.9679C51.8404 69.0199 51.6064 69.0979 51.3811 69.2019C51.1557 69.2972 50.9217 69.4142 50.6791 69.5529V74.9999H49.6521ZM58.6466 75.0779C58.1353 75.0779 57.715 74.9262 57.3856 74.6229C57.0563 74.3195 56.8916 73.8905 56.8916 73.3359V72.8419C56.8916 72.2959 57.0693 71.8539 57.4246 71.5159C57.7886 71.1779 58.3346 71.0089 59.0626 71.0089H61.4156V70.1509C61.4156 69.8649 61.3636 69.6222 61.2596 69.4229C61.1643 69.2149 60.9866 69.0545 60.7266 68.9419C60.4753 68.8292 60.107 68.7729 59.6216 68.7729H57.4636V68.1619C57.767 68.1099 58.118 68.0622 58.5166 68.0189C58.924 67.9755 59.4006 67.9539 59.9466 67.9539C60.51 67.9452 60.978 68.0145 61.3506 68.1619C61.7233 68.3092 61.9963 68.5432 62.1696 68.8639C62.3516 69.1759 62.4426 69.5875 62.4426 70.0989V74.9999H61.6496L61.4546 74.2069C61.42 74.2415 61.3116 74.3022 61.1296 74.3889C60.9563 74.4755 60.731 74.5752 60.4536 74.6879C60.185 74.7919 59.8903 74.8829 59.5696 74.9609C59.2576 75.0389 58.95 75.0779 58.6466 75.0779ZM59.0756 74.3109C59.2316 74.3195 59.4093 74.3022 59.6086 74.2589C59.808 74.2155 60.0116 74.1679 60.2196 74.1159C60.4276 74.0552 60.6183 73.9945 60.7916 73.9339C60.9736 73.8732 61.121 73.8212 61.2336 73.7779C61.3463 73.7345 61.407 73.7129 61.4156 73.7129V71.5289L59.2966 71.6199C58.8026 71.6372 58.4473 71.7585 58.2306 71.9839C58.0226 72.2092 57.9186 72.4995 57.9186 72.8549V73.1669C57.9186 73.4442 57.975 73.6695 58.0876 73.8429C58.209 74.0075 58.3563 74.1245 58.5296 74.1939C58.7116 74.2632 58.8936 74.3022 59.0756 74.3109ZM64.3786 74.9999V68.0579H65.1586L65.4056 69.2669C65.7176 68.8942 66.0643 68.5865 66.4456 68.3439C66.8356 68.1012 67.282 67.9799 67.7846 67.9799C67.906 67.9799 68.0186 67.9842 68.1226 67.9929C68.2353 68.0015 68.3393 68.0189 68.4346 68.0449V69.0979C68.322 69.0805 68.2006 69.0675 68.0706 69.0589C67.9406 69.0415 67.8106 69.0329 67.6806 69.0329C67.36 69.0329 67.074 69.0719 66.8226 69.1499C66.5713 69.2279 66.333 69.3449 66.1076 69.5009C65.8823 69.6569 65.6483 69.8475 65.4056 70.0729V74.9999H64.3786ZM71.439 78.1849C70.9884 78.1849 70.5897 78.1199 70.243 77.9899C69.905 77.8685 69.6364 77.6779 69.437 77.4179C69.2464 77.1665 69.151 76.8502 69.151 76.4689V76.1569C69.151 75.7582 69.2594 75.4245 69.476 75.1559C69.7014 74.8872 69.983 74.6879 70.321 74.5579C70.659 74.4192 71.0057 74.3499 71.361 74.3499L71.621 74.7659C71.361 74.7659 71.1184 74.8092 70.893 74.8959C70.6677 74.9739 70.4814 75.1039 70.334 75.2859C70.1954 75.4679 70.126 75.7019 70.126 75.9879V76.2739C70.126 76.6899 70.2647 76.9845 70.542 77.1579C70.8194 77.3399 71.1964 77.4309 71.673 77.4309H73.285C73.805 77.4309 74.2124 77.3312 74.507 77.1319C74.8104 76.9325 74.962 76.6205 74.962 76.1959V75.9359C74.962 75.6932 74.9144 75.4852 74.819 75.3119C74.7237 75.1385 74.5634 75.0042 74.338 74.9089C74.1214 74.8135 73.8137 74.7659 73.415 74.7659H71.322C70.7847 74.7659 70.3644 74.6532 70.061 74.4279C69.7664 74.1939 69.619 73.8949 69.619 73.5309C69.619 73.1842 69.7187 72.9112 69.918 72.7119C70.126 72.5125 70.4164 72.3739 70.789 72.2959C70.4684 72.1659 70.217 71.9925 70.035 71.7759C69.853 71.5505 69.7274 71.3122 69.658 71.0609C69.5887 70.8009 69.554 70.5409 69.554 70.2809C69.554 69.7435 69.6624 69.3102 69.879 68.9809C70.0957 68.6515 70.4034 68.4132 70.802 68.2659C71.2094 68.1185 71.686 68.0449 72.232 68.0449H75.937V68.6299L74.377 68.7599C74.4897 68.8379 74.6154 68.9419 74.754 69.0719C74.8927 69.1932 75.0097 69.3709 75.105 69.6049C75.209 69.8302 75.261 70.1422 75.261 70.5409C75.261 70.8962 75.183 71.2342 75.027 71.5549C74.8797 71.8755 74.6284 72.1399 74.273 72.3479C73.9177 72.5472 73.428 72.6469 72.804 72.6469H71.699C71.335 72.6469 71.0447 72.7032 70.828 72.8159C70.62 72.9199 70.516 73.1105 70.516 73.3879C70.516 73.5959 70.594 73.7432 70.75 73.8299C70.906 73.9165 71.0707 73.9599 71.244 73.9599H73.545C74.0824 73.9599 74.5244 74.0292 74.871 74.1679C75.2264 74.3065 75.4907 74.5189 75.664 74.8049C75.846 75.0822 75.937 75.4375 75.937 75.8709V76.1569C75.937 76.7895 75.7204 77.2835 75.287 77.6389C74.8624 78.0029 74.2254 78.1849 73.376 78.1849H71.439ZM71.92 71.8539H72.7C73.142 71.8539 73.4757 71.7889 73.701 71.6589C73.935 71.5202 74.0954 71.3425 74.182 71.1259C74.2687 70.9092 74.312 70.6752 74.312 70.4239C74.312 70.0339 74.247 69.7262 74.117 69.5009C73.9957 69.2669 73.8224 69.1022 73.597 69.0069C73.3717 68.9029 73.1117 68.8509 72.817 68.8509H72.076C71.582 68.8509 71.192 68.9635 70.906 69.1889C70.6287 69.4055 70.49 69.7869 70.49 70.3329C70.49 70.8702 70.6157 71.2602 70.867 71.5029C71.127 71.7369 71.478 71.8539 71.92 71.8539ZM77.3823 66.8229C77.2436 66.8229 77.1743 66.7535 77.1743 66.6149V65.6009C77.1743 65.4622 77.2436 65.3929 77.3823 65.3929H78.1103C78.1796 65.3929 78.2273 65.4145 78.2533 65.4579C78.2879 65.4925 78.3053 65.5402 78.3053 65.6009V66.6149C78.3053 66.7535 78.2403 66.8229 78.1103 66.8229H77.3823ZM77.2263 74.9999V68.0579H78.2533V74.9999H77.2263ZM80.2351 74.9999V68.0579H81.0411L81.2621 68.8249C81.5914 68.5909 81.9771 68.3872 82.4191 68.2139C82.8611 68.0319 83.3204 67.9409 83.7971 67.9409C84.3084 67.9409 84.7201 68.0492 85.0321 68.2659C85.3441 68.4825 85.5737 68.7685 85.7211 69.1239C85.8684 69.4792 85.9421 69.8649 85.9421 70.2809V74.9999H84.9151V70.3979C84.9151 70.1032 84.8544 69.8432 84.7331 69.6179C84.6204 69.3839 84.4557 69.2019 84.2391 69.0719C84.0311 68.9419 83.7711 68.8769 83.4591 68.8769C83.1731 68.8769 82.9044 68.9072 82.6531 68.9679C82.4104 69.0199 82.1764 69.0979 81.9511 69.2019C81.7344 69.2972 81.5047 69.4142 81.2621 69.5529V74.9999H80.2351Z" fill="#F1F2F3"/>
<defs>
<filter id="filter0_b_122_201" x="-16" y="-16.0001" width="159" height="124" filterUnits="userSpaceOnUse" color-interpolation-filters="sRGB">
<feFlood flood-opacity="0" result="BackgroundImageFix"/>
<feGaussianBlur in="BackgroundImageFix" stdDeviation="8"/>
<feComposite in2="SourceAlpha" operator="in" result="effect1_backgroundBlur_122_201"/>
<feBlend mode="normal" in="SourceGraphic" in2="effect1_backgroundBlur_122_201" result="shape"/>
</filter>
</defs>
</svg>
